<svg width="1252" height="399" viewBox="0 0 1252 399" fill="none" xmlns="http://www.w3.org/2000/svg">
<path d="M1242.69 77.6403H1212.6C1212.26 44.8139 1190.03 27.0328 1150.37 27.0328C1116.86 27.0328 1094.63 43.788 1094.63 69.0918C1094.63 88.2405 1105.58 97.8149 1135.67 106.022L1198.24 122.777C1232.09 132.009 1251.24 154.577 1251.24 185.352C1251.24 206.895 1240.64 229.121 1223.89 242.457C1207.82 254.766 1183.54 261.605 1153.79 261.605C1115.83 261.605 1087.11 249.637 1070.01 226.043C1060.1 212.366 1055.65 197.32 1055.31 174.41H1085.4C1085.06 189.797 1089.16 201.765 1098.39 212.708C1110.36 227.069 1128.49 233.566 1155.84 233.566C1176.02 233.566 1191.74 230.147 1201.66 222.966C1212.26 215.443 1219.44 201.765 1219.44 188.43C1219.44 168.939 1205.42 156.287 1173.62 148.08L1111.73 131.667C1078.9 123.119 1062.83 103.97 1062.83 73.537C1062.83 28.4006 1096.68 0.361328 1151.4 0.361328C1193.45 0.361328 1222.52 15.4068 1236.2 44.13C1241.67 55.756 1242.69 60.5432 1242.69 77.6403Z" fill="#000101"/>
<path d="M1013.02 4.4668V253.743H977.115L848.203 51.6548V253.743H818.112V4.4668H852.648L982.928 208.264V4.4668H1013.02Z" fill="#000101"/>
<path d="M659.001 0.361328C732.177 0.361328 779.707 52.6785 779.707 133.035C779.707 173.726 763.636 212.366 736.622 235.276C716.448 252.373 689.776 261.605 659.343 261.605C587.193 261.605 538.979 209.288 538.979 130.983C538.979 53.0205 587.535 0.361328 659.001 0.361328ZM659.001 28.4006C606 28.4006 570.78 69.4337 570.78 130.983C570.78 192.533 606 233.566 659.343 233.566C712.002 233.566 747.906 192.533 747.906 132.351C747.906 69.0918 713.028 28.4006 659.001 28.4006Z" fill="#000101"/>
<path d="M392.859 0.361328C466.034 0.361328 513.564 52.6785 513.564 133.035C513.564 173.726 497.493 212.366 470.48 235.276C450.305 252.373 423.633 261.605 393.201 261.605C321.051 261.605 272.837 209.288 272.837 130.983C272.837 53.0205 321.393 0.361328 392.859 0.361328ZM392.859 28.4006C339.858 28.4006 304.638 69.4337 304.638 130.983C304.638 192.533 339.858 233.566 393.201 233.566C445.86 233.566 481.764 192.533 481.764 132.351C481.764 69.0918 446.886 28.4006 392.859 28.4006Z" fill="#000101"/>
<path d="M135.029 253.741H101.518L30.7364 44.814V253.741H0.645508V4.46484H44.7561L118.616 221.598L191.107 4.46484H235.218V253.741H205.127V44.814L135.029 253.741Z" fill="#000101"/>
<path d="M1248.38 336.554H1238.31C1238.19 325.564 1230.75 319.611 1217.47 319.611C1206.25 319.611 1198.81 325.221 1198.81 333.692C1198.81 340.103 1202.47 343.308 1212.55 346.056L1233.5 351.665C1244.83 354.756 1251.24 362.312 1251.24 372.615C1251.24 379.828 1247.69 387.269 1242.08 391.733C1236.7 395.855 1228.58 398.144 1218.62 398.144C1205.91 398.144 1196.29 394.137 1190.57 386.238C1187.25 381.659 1185.76 376.622 1185.65 368.952H1195.72C1195.61 374.104 1196.98 378.11 1200.07 381.774C1204.08 386.582 1210.14 388.757 1219.3 388.757C1226.06 388.757 1231.32 387.612 1234.64 385.208C1238.19 382.69 1240.6 378.11 1240.6 373.646C1240.6 367.12 1235.9 362.884 1225.26 360.137L1204.53 354.642C1193.54 351.78 1188.16 345.369 1188.16 335.18C1188.16 320.069 1199.5 310.682 1217.81 310.682C1231.9 310.682 1241.63 315.719 1246.21 325.335C1248.04 329.227 1248.38 330.83 1248.38 336.554Z" fill="#4F7AA9"/>
<path d="M1109.26 357.503V386.123H1158.49V395.511H1098.62V312.055H1156.43V321.442H1109.26V348.116H1154.71V357.503H1109.26Z" fill="#4F7AA9"/>
<path d="M1060.11 312.057V395.512H1048.09L1004.93 327.855V395.512H994.858V312.057H1006.42L1050.04 380.287V312.057H1060.11Z" fill="#4F7AA9"/>
<path d="M945.696 312.055H956.342V370.668C956.342 387.382 943.749 398.144 924.173 398.144C904.368 398.144 892.233 387.611 892.233 370.668V312.055H902.88V370.668C902.88 376.965 904.826 381.201 908.948 384.406C912.954 387.268 917.991 388.756 924.173 388.756C937.568 388.756 945.696 381.887 945.696 370.668V312.055Z" fill="#4F7AA9"/>
<path d="M787.565 395.512V312.057H819.734C840.913 312.057 853.735 327.855 853.735 353.727C853.735 379.714 840.799 395.512 819.734 395.512H787.565ZM798.212 386.125H817.903C834.388 386.125 843.088 375.021 843.088 353.842C843.088 332.549 834.388 321.444 817.903 321.444H798.212V386.125Z" fill="#4F7AA9"/>
<path d="M751.506 336.554H741.431C741.317 325.564 733.876 319.611 720.596 319.611C709.377 319.611 701.936 325.221 701.936 333.692C701.936 340.103 705.599 343.308 715.673 346.056L736.623 351.665C747.957 354.756 754.367 362.312 754.367 372.615C754.367 379.828 750.819 387.269 745.209 391.733C739.829 395.855 731.7 398.144 721.741 398.144C709.033 398.144 699.417 394.137 693.693 386.238C690.373 381.659 688.885 376.622 688.771 368.952H698.845C698.73 374.104 700.104 378.11 703.195 381.774C707.202 386.582 713.269 388.757 722.428 388.757C729.182 388.757 734.448 387.612 737.768 385.208C741.317 382.69 743.721 378.11 743.721 373.646C743.721 367.12 739.027 362.884 728.381 360.137L707.66 354.642C696.67 351.78 691.289 345.369 691.289 335.18C691.289 320.069 702.623 310.682 720.939 310.682C735.02 310.682 744.751 315.719 749.33 325.335C751.162 329.227 751.506 330.83 751.506 336.554Z" fill="#4F7AA9"/>
<path d="M650.266 312.057V395.512H638.246L595.087 327.855V395.512H585.013V312.057H596.575L640.192 380.287V312.057H650.266Z" fill="#4F7AA9"/>
<path d="M400.041 310.682C424.54 310.682 440.452 328.197 440.452 355.1C440.452 368.723 435.072 381.659 426.028 389.329C419.273 395.053 410.344 398.144 400.155 398.144C376 398.144 359.858 380.629 359.858 354.413C359.858 328.312 376.115 310.682 400.041 310.682ZM400.041 320.069C382.296 320.069 370.505 333.807 370.505 354.413C370.505 375.019 382.296 388.757 400.155 388.757C417.785 388.757 429.806 375.019 429.806 354.871C429.806 333.692 418.129 320.069 400.041 320.069Z" fill="#4F7AA9"/>
<path d="M511.408 310.682C535.907 310.682 551.819 328.197 551.819 355.1C551.819 368.723 546.439 381.659 537.395 389.329C530.641 395.053 521.711 398.144 511.523 398.144C487.367 398.144 471.226 380.629 471.226 354.413C471.226 328.312 487.482 310.682 511.408 310.682ZM511.408 320.069C493.664 320.069 481.872 333.807 481.872 354.413C481.872 375.019 493.664 388.757 511.523 388.757C529.152 388.757 541.173 375.019 541.173 354.871C541.173 333.692 529.496 320.069 511.408 320.069Z" fill="#4F7AA9"/>
<path d="M297.484 395.512H286.265L262.567 325.565V395.512H252.493V312.057H267.261L291.989 384.751L316.258 312.057H331.026V395.512H320.952V325.565L297.484 395.512Z" fill="#4F7AA9"/>
<path d="M135.658 362.769V395.511H125.012V362.769L92.8428 312.055H106.008L130.507 352.695L154.318 312.055H167.026L135.658 362.769Z" fill="#4F7AA9"/>
<path d="M0.645508 395.511V312.055H34.5316C42.5452 312.055 48.1547 313.886 52.6194 317.893C56.9696 321.785 59.2592 327.052 59.2592 333.233C59.2592 341.819 55.3669 347.887 47.6968 351.436C58.3434 355.557 62.9226 361.624 62.9226 371.699C62.9226 378.224 60.633 384.177 56.5117 388.527C52.047 393.335 46.2085 395.511 38.3094 395.511H0.645508ZM11.2921 348.001H31.8985C37.8515 348.001 41.1714 347.2 44.0334 345.025C47.0099 342.735 48.6126 339.301 48.6126 334.722C48.6126 330.143 47.0099 326.708 44.0334 324.419C41.1714 322.243 37.8515 321.442 31.8985 321.442H11.2921V348.001ZM11.2921 386.123H37.2791C46.6664 386.123 52.276 380.743 52.276 371.813C52.276 362.769 46.6664 357.389 37.2791 357.389H11.2921V386.123Z" fill="#4F7AA9"/>
</svg>
